<?xml version="1.0" standalone="no"?>
<!DOCTYPE svg PUBLIC "-//W3C//DTD SVG 20010904//EN"
 "http://www.w3.org/TR/2001/REC-SVG-20010904/DTD/svg10.dtd">
<svg version="1.0" xmlns="http://www.w3.org/2000/svg"
 width="500.000000pt" height="500.000000pt" viewBox="0 0 500.000000 500.000000"
 preserveAspectRatio="xMidYMid meet">
<metadata>
Created by potrace 1.14, written by Peter Selinger 2001-2017
</metadata>
<g transform="translate(0.000000,500.000000) scale(0.100000,-0.100000)"
fill="#000000" stroke="none">
<path d="M2990 3325 c-30 -8 -93 -34 -140 -57 -72 -35 -101 -58 -196 -152
-123 -124 -162 -186 -194 -312 -37 -144 -20 -327 43 -451 83 -163 230 -287
397 -337 78 -23 710 -130 718 -121 3 2 -6 18 -18 34 -23 34 -24 34 38 22 23
-5 42 -5 42 -1 0 4 -34 54 -75 111 l-75 104 55 48 c75 66 149 180 181 280 35
105 39 276 10 372 -64 212 -224 381 -426 447 -85 28 -279 35 -360 13z"/>
<path d="M1595 3221 c-345 -76 -318 -68 -312 -91 4 -16 -2 -21 -30 -26 -30 -6
-34 -9 -29 -33 26 -137 251 -1168 256 -1174 4 -4 195 33 424 83 535 115 504
107 508 133 2 15 12 24 33 27 19 4 29 11 28 20 -7 53 -122 582 -128 588 -1 1
-75 -14 -165 -33 -89 -20 -164 -34 -166 -32 -2 2 -31 129 -64 283 -70 323 -68
314 -83 313 -7 0 -129 -27 -272 -58z"/>
</g>
</svg>
